<?xml version="1.0" encoding="utf-8"?>
<!-- Generator: Adobe Illustrator 24.1.1, SVG Export Plug-In . SVG Version: 6.00 Build 0)  -->
<svg version="1.1" xmlns="http://www.w3.org/2000/svg" xmlns:xlink="http://www.w3.org/1999/xlink" x="0px" y="0px"
	 viewBox="0 0 1280 1024" style="enable-background:new 0 0 1280 1024;" xml:space="preserve">
<style type="text/css">
	.st0{fill:#75F8CC;}
	.st1{fill:#33373B;}
	.st2{fill:#C0F4FB;}
	.st3{fill:#FFFFFF;}
</style>
<g id="bg">
	<rect x="-9.5" y="-1234" class="st0" width="1299" height="1044"/>
	<rect x="-9.5" y="-10" class="st0" width="1299" height="1044"/>
	<rect x="-2953.5" y="-1234" class="st1" width="1299" height="1044"/>
	<rect x="-2953.5" y="-10" class="st1" width="1299" height="1044"/>
	<rect x="-5908.5" y="-1234" class="st1" width="1299" height="1044"/>
	<rect x="-5908.5" y="-10" class="st1" width="1299" height="1044"/>
	<rect x="-1495.5" y="-1234" class="st2" width="1299" height="1044"/>
	<rect x="-1495.5" y="-10" class="st2" width="1299" height="1044"/>
</g>
<g id="elements">
	<g>
		<g>
			<g>
				<path class="st1" d="M542.6,457.7c-1.9,5.6-7.2,9.5-13.4,9.5l-24.3,0c-13.7-0.1-24.9,11-24.9,24.7c0,6.9,2.7,13.1,7.2,17.6
					c4.5,4.5,10.7,7.3,17.5,7.4l0.8,0c3.4,0,6.6-1.3,9-3.7l8.9-8.8l0,0l-18.4-0.1c-6.7,0-12.6-5.6-12.5-12.3c0-3.4,1.4-6.4,3.6-8.6
					c2.2-2.2,5.3-3.6,8.7-3.5l24.3,0c6.4,0,12.3-2.2,16.9-6c1.4-1.1,2.6-2.3,3.7-3.7c2.9-3.5,4.9-7.8,5.7-12.4H542.6z"/>
			</g>
		</g>
		<g>
			<g>
				<path class="st1" d="M559.8,499.2c-4.5-4.5-10.7-7.3-17.5-7.4l-0.8,0c-3.4,0-6.6,1.3-9,3.7l-8.9,8.8l18.3,0.1
					c6.7,0,12.6,5.6,12.5,12.3c0,3.4-1.4,6.4-3.6,8.6c-2.2,2.2-5.3,3.6-8.7,3.5l-25,0c-6.4,0-12.3,2.2-17,6
					c-1.4,1.1-2.6,2.4-3.7,3.7c-2.7,3.3-4.7,7.2-5.6,11.6h13.1c2.1-5.2,7.2-8.7,13.1-8.7l25,0c13.7,0.1,24.9-11,24.9-24.7
					C567,509.9,564.2,503.7,559.8,499.2z"/>
			</g>
		</g>
		<g>
			<g>
				<path class="st1" d="M664.7,463.4c-4.5,0-8.1,3.6-8.1,8.1c0,4.5,3.6,8.1,8.1,8.1c4.5,0,8.1-3.6,8.1-8.1
					C672.8,467.1,669.2,463.4,664.7,463.4z"/>
			</g>
		</g>
		<g>
			<g>
				<rect x="658.5" y="487" class="st1" width="12.2" height="54.4"/>
			</g>
		</g>
		<g>
			<g>
				<path class="st1" d="M618.7,501.5v39.9h12.5v-41.9h17.6V487h-15.6C625.2,487,618.7,493.5,618.7,501.5z"/>
			</g>
		</g>
		<g>
			<g>
				<path class="st1" d="M591.3,487l0-13.4l-12.2,0l0,13.4l0,32l0,7.9c0,8,6.5,14.5,14.5,14.5l13.2,0l0-12.5l-15.5,0l0.1-29.5
					l15.4,0l0-12.4L591.3,487L591.3,487z"/>
			</g>
		</g>
		<g>
			<g>
				<path class="st1" d="M709,486.3c-14.1,0-26.2,11.1-26.2,25h0v0.1c0,5.4,0,30,0,30H695v-28.8c0-1.4,0.1-2.9,0.5-4.3
					c1.8-5.8,7.2-9.9,13.5-9.9c6.6,0,12.2,4.5,13.7,10.7c0.3,1.1,0.5,2.2,0.5,3.4v29h12.2v-30C735.5,497.5,723.1,486.3,709,486.3z"
					/>
			</g>
		</g>
		<g>
			<path class="st1" d="M800,487.1h-12.3l0,4.2l-0.6-0.4c-4.9-3.2-10.6-4.8-16.5-4.5c-14,0.6-25.3,11.6-26.2,25.6
				c-0.5,7.7,2.1,15.1,7.4,20.7c5.2,5.6,12.6,8.8,20.2,8.8c5.3,0,10.5-1.5,15-4.5l0.6-0.4l0,0.7l0,16.6h-31.1v12.5h29.4
				c7.8,0,14.1-6.3,14.1-14.1V487.1z M771.9,529.4c-8.5,0-15.5-6.9-15.5-15.5s6.9-15.5,15.5-15.5c8.5,0,15.5,6.9,15.5,15.5
				S780.5,529.4,771.9,529.4z"/>
		</g>
	</g>
	<g>
		<g>
			<g>
				<path class="st1" d="M683-816c-4.3,12.6-16.2,21.5-30.1,21.4l-54.6,0c-30.8-0.2-55.9,24.7-56.1,55.5
					c-0.1,15.4,6.1,29.4,16.1,39.5c10.1,10.2,24,16.5,39.4,16.6l1.9,0c7.6,0,14.9-2.9,20.3-8.3l20-19.8l0,0l-41.3-0.2
					c-15.1-0.1-28.2-12.5-28.2-27.6c0-7.6,3.2-14.5,8.1-19.4c5-5,11.9-8,19.5-8l54.6,0c14.4,0.1,27.7-4.9,38.1-13.4
					c3.1-2.5,5.9-5.3,8.4-8.3c6.5-7.9,11-17.4,12.9-28H683z"/>
			</g>
		</g>
		<g>
			<g>
				<path class="st1" d="M721.6-722.6c-10-10.1-24-16.5-39.4-16.5l-1.9,0c-7.6,0-14.9,2.9-20.3,8.3l-20,19.8l41.2,0.2
					c15.1,0.1,28.3,12.5,28.2,27.7c0,7.6-3.2,14.4-8.1,19.4c-5,4.9-11.9,8-19.5,8l-56.2,0c-14.4-0.1-27.7,5-38.1,13.5
					c-3.1,2.5-5.9,5.3-8.4,8.3c-6.1,7.4-10.5,16.3-12.5,26.1H596c4.8-11.6,16.2-19.7,29.4-19.6l56.2,0c30.8,0.2,55.9-24.7,56.1-55.5
					C737.8-698.5,731.6-712.5,721.6-722.6z"/>
			</g>
		</g>
	</g>
	<g>
		<g>
			<g>
				<path class="st1" d="M-943.4,457.7c-1.9,5.6-7.2,9.5-13.4,9.5l-24.3,0c-13.7-0.1-24.9,11-24.9,24.7c0,6.9,2.7,13.1,7.2,17.6
					c4.5,4.5,10.7,7.3,17.5,7.4l0.8,0c3.4,0,6.6-1.3,9-3.7l8.9-8.8l0,0l-18.4-0.1c-6.7,0-12.6-5.6-12.5-12.3c0-3.4,1.4-6.4,3.6-8.6
					c2.2-2.2,5.3-3.6,8.7-3.5l24.3,0c6.4,0,12.3-2.2,16.9-6c1.4-1.1,2.6-2.3,3.7-3.7c2.9-3.5,4.9-7.8,5.7-12.4H-943.4z"/>
			</g>
		</g>
		<g>
			<g>
				<path class="st1" d="M-926.2,499.2c-4.5-4.5-10.7-7.3-17.5-7.4l-0.8,0c-3.4,0-6.6,1.3-9,3.7l-8.9,8.8l18.3,0.1
					c6.7,0,12.6,5.6,12.5,12.3c0,3.4-1.4,6.4-3.6,8.6c-2.2,2.2-5.3,3.6-8.7,3.5l-25,0c-6.4,0-12.3,2.2-17,6
					c-1.4,1.1-2.6,2.4-3.7,3.7c-2.7,3.3-4.7,7.2-5.6,11.6h13.1c2.1-5.2,7.2-8.7,13.1-8.7l25,0c13.7,0.1,24.9-11,24.9-24.7
					C-919,509.9-921.8,503.7-926.2,499.2z"/>
			</g>
		</g>
		<g>
			<g>
				<path class="st1" d="M-821.3,463.4c-4.5,0-8.1,3.6-8.1,8.1c0,4.5,3.6,8.1,8.1,8.1c4.5,0,8.1-3.6,8.1-8.1
					C-813.2,467.1-816.8,463.4-821.3,463.4z"/>
			</g>
		</g>
		<g>
			<g>
				<rect x="-827.5" y="487" class="st1" width="12.2" height="54.4"/>
			</g>
		</g>
		<g>
			<g>
				<path class="st1" d="M-867.3,501.5v39.9h12.5v-41.9h17.6V487h-15.6C-860.8,487-867.3,493.5-867.3,501.5z"/>
			</g>
		</g>
		<g>
			<g>
				<path class="st1" d="M-894.7,487l0-13.4l-12.2,0l0,13.4l0,32l0,7.9c0,8,6.5,14.5,14.5,14.5l13.2,0l0-12.5l-15.5,0l0.1-29.5
					l15.4,0l0-12.4L-894.7,487L-894.7,487z"/>
			</g>
		</g>
		<g>
			<g>
				<path class="st1" d="M-777,486.3c-14.1,0-26.2,11.1-26.2,25h0v0.1c0,5.4,0,30,0,30h12.2v-28.8c0-1.4,0.1-2.9,0.5-4.3
					c1.8-5.8,7.2-9.9,13.5-9.9c6.6,0,12.2,4.5,13.7,10.7c0.3,1.1,0.5,2.2,0.5,3.4v29h12.2v-30C-750.5,497.5-762.9,486.3-777,486.3z"
					/>
			</g>
		</g>
		<g>
			<path class="st1" d="M-686,487.1h-12.3l0,4.2l-0.6-0.4c-4.9-3.2-10.6-4.8-16.5-4.5c-14,0.6-25.3,11.6-26.2,25.6
				c-0.5,7.7,2.1,15.1,7.4,20.7c5.2,5.6,12.6,8.8,20.2,8.8c5.3,0,10.5-1.5,15-4.5l0.6-0.4l0,0.7l0,16.6h-31.1v12.5h29.4
				c7.8,0,14.1-6.3,14.1-14.1V487.1z M-714.1,529.4c-8.5,0-15.5-6.9-15.5-15.5s6.9-15.5,15.5-15.5c8.5,0,15.5,6.9,15.5,15.5
				S-705.5,529.4-714.1,529.4z"/>
		</g>
	</g>
	<g>
		<g>
			<g>
				<path class="st1" d="M-803-816c-4.3,12.6-16.2,21.5-30.1,21.4l-54.6,0c-30.8-0.2-55.9,24.7-56.1,55.5
					c-0.1,15.4,6.1,29.4,16.1,39.5c10.1,10.2,24,16.5,39.4,16.6l1.9,0c7.6,0,14.9-2.9,20.3-8.3l20-19.8l0,0l-41.3-0.2
					c-15.1-0.1-28.2-12.5-28.2-27.6c0-7.6,3.2-14.5,8.1-19.4c5-5,11.9-8,19.5-8l54.6,0c14.4,0.1,27.7-4.9,38.1-13.4
					c3.1-2.5,5.9-5.3,8.4-8.3c6.5-7.9,11-17.4,12.9-28H-803z"/>
			</g>
		</g>
		<g>
			<g>
				<path class="st1" d="M-764.4-722.6c-10-10.1-24-16.5-39.4-16.5l-1.9,0c-7.6,0-14.9,2.9-20.3,8.3l-20,19.8l41.2,0.2
					c15.1,0.1,28.3,12.5,28.2,27.7c0,7.6-3.2,14.4-8.1,19.4c-5,4.9-11.9,8-19.5,8l-56.2,0c-14.4-0.1-27.7,5-38.1,13.5
					c-3.1,2.5-5.9,5.3-8.4,8.3c-6.1,7.4-10.5,16.3-12.5,26.1h29.5c4.8-11.6,16.2-19.7,29.4-19.6l56.2,0
					c30.8,0.2,55.9-24.7,56.1-55.5C-748.2-698.5-754.4-712.5-764.4-722.6z"/>
			</g>
		</g>
	</g>
	<g>
		<g>
			<g>
				<path class="st3" d="M-2401.4,457.7c-1.9,5.6-7.2,9.5-13.4,9.5l-24.3,0c-13.7-0.1-24.9,11-24.9,24.7c0,6.9,2.7,13.1,7.2,17.6
					c4.5,4.5,10.7,7.3,17.5,7.4l0.8,0c3.4,0,6.6-1.3,9-3.7l8.9-8.8l0,0l-18.4-0.1c-6.7,0-12.6-5.6-12.5-12.3c0-3.4,1.4-6.4,3.6-8.6
					c2.2-2.2,5.3-3.6,8.7-3.5l24.3,0c6.4,0,12.3-2.2,16.9-6c1.4-1.1,2.6-2.3,3.7-3.7c2.9-3.5,4.9-7.8,5.7-12.4H-2401.4z"/>
			</g>
		</g>
		<g>
			<g>
				<path class="st3" d="M-2384.2,499.2c-4.5-4.5-10.7-7.3-17.5-7.4l-0.8,0c-3.4,0-6.6,1.3-9,3.7l-8.9,8.8l18.3,0.1
					c6.7,0,12.6,5.6,12.5,12.3c0,3.4-1.4,6.4-3.6,8.6c-2.2,2.2-5.3,3.6-8.7,3.5l-25,0c-6.4,0-12.3,2.2-17,6
					c-1.4,1.1-2.6,2.4-3.7,3.7c-2.7,3.3-4.7,7.2-5.6,11.6h13.1c2.1-5.2,7.2-8.7,13.1-8.7l25,0c13.7,0.1,24.9-11,24.9-24.7
					C-2377,509.9-2379.8,503.7-2384.2,499.2z"/>
			</g>
		</g>
		<g>
			<g>
				<path class="st3" d="M-2279.3,463.4c-4.5,0-8.1,3.6-8.1,8.1c0,4.5,3.6,8.1,8.1,8.1c4.5,0,8.1-3.6,8.1-8.1
					C-2271.2,467.1-2274.8,463.4-2279.3,463.4z"/>
			</g>
		</g>
		<g>
			<g>
				<rect x="-2285.5" y="487" class="st3" width="12.2" height="54.4"/>
			</g>
		</g>
		<g>
			<g>
				<path class="st3" d="M-2325.3,501.5v39.9h12.5v-41.9h17.6V487h-15.6C-2318.8,487-2325.3,493.5-2325.3,501.5z"/>
			</g>
		</g>
		<g>
			<g>
				<path class="st3" d="M-2352.7,487l0-13.4l-12.2,0l0,13.4l0,32l0,7.9c0,8,6.5,14.5,14.5,14.5l13.2,0l0-12.5l-15.5,0l0.1-29.5
					l15.4,0l0-12.4L-2352.7,487L-2352.7,487z"/>
			</g>
		</g>
		<g>
			<g>
				<path class="st3" d="M-2235,486.3c-14.1,0-26.2,11.1-26.2,25h0v0.1c0,5.4,0,30,0,30h12.2v-28.8c0-1.4,0.1-2.9,0.5-4.3
					c1.8-5.8,7.2-9.9,13.5-9.9c6.6,0,12.2,4.5,13.7,10.7c0.3,1.1,0.5,2.2,0.5,3.4v29h12.2v-30
					C-2208.5,497.5-2220.9,486.3-2235,486.3z"/>
			</g>
		</g>
		<g>
			<path class="st3" d="M-2144,487.1h-12.3l0,4.2l-0.6-0.4c-4.9-3.2-10.6-4.8-16.5-4.5c-14,0.6-25.3,11.6-26.2,25.6
				c-0.5,7.7,2.1,15.1,7.4,20.7c5.2,5.6,12.6,8.8,20.2,8.8c5.3,0,10.5-1.5,15-4.5l0.6-0.4l0,0.7l0,16.6h-31.1v12.5h29.4
				c7.8,0,14.1-6.3,14.1-14.1V487.1z M-2172.1,529.4c-8.5,0-15.5-6.9-15.5-15.5s6.9-15.5,15.5-15.5c8.5,0,15.5,6.9,15.5,15.5
				S-2163.5,529.4-2172.1,529.4z"/>
		</g>
	</g>
	<g>
		<g>
			<g>
				<path class="st3" d="M-2261-816c-4.3,12.6-16.2,21.5-30.1,21.4l-54.6,0c-30.8-0.2-55.9,24.7-56.1,55.5
					c-0.1,15.4,6.1,29.4,16.1,39.5c10.1,10.2,24,16.5,39.4,16.6l1.9,0c7.6,0,14.9-2.9,20.3-8.3l20-19.8l0,0l-41.3-0.2
					c-15.1-0.1-28.2-12.5-28.2-27.6c0-7.6,3.2-14.5,8.1-19.4c5-5,11.9-8,19.5-8l54.6,0c14.4,0.1,27.7-4.9,38.1-13.4
					c3.1-2.5,5.9-5.3,8.4-8.3c6.5-7.9,11-17.4,12.9-28H-2261z"/>
			</g>
		</g>
		<g>
			<g>
				<path class="st3" d="M-2222.4-722.6c-10-10.1-24-16.5-39.4-16.5l-1.9,0c-7.6,0-14.9,2.9-20.3,8.3l-20,19.8l41.2,0.2
					c15.1,0.1,28.3,12.5,28.2,27.7c0,7.6-3.2,14.4-8.1,19.4c-5,4.9-11.9,8-19.5,8l-56.2,0c-14.4-0.1-27.7,5-38.1,13.5
					c-3.1,2.5-5.9,5.3-8.4,8.3c-6.1,7.4-10.5,16.3-12.5,26.1h29.5c4.8-11.6,16.2-19.7,29.4-19.6l56.2,0
					c30.8,0.2,55.9-24.7,56.1-55.5C-2206.2-698.5-2212.4-712.5-2222.4-722.6z"/>
			</g>
		</g>
	</g>
	<g>
		<g>
			<g>
				<path class="st1" d="M-3887.4,457.7c-1.9,5.6-7.2,9.5-13.4,9.5l-24.3,0c-13.7-0.1-24.9,11-24.9,24.7c0,6.9,2.7,13.1,7.2,17.6
					c4.5,4.5,10.7,7.3,17.5,7.4l0.8,0c3.4,0,6.6-1.3,9-3.7l8.9-8.8l0,0l-18.4-0.1c-6.7,0-12.6-5.6-12.5-12.3c0-3.4,1.4-6.4,3.6-8.6
					c2.2-2.2,5.3-3.6,8.7-3.5l24.3,0c6.4,0,12.3-2.2,16.9-6c1.4-1.1,2.6-2.3,3.7-3.7c2.9-3.5,4.9-7.8,5.7-12.4H-3887.4z"/>
			</g>
		</g>
		<g>
			<g>
				<path class="st1" d="M-3870.2,499.2c-4.5-4.5-10.7-7.3-17.5-7.4l-0.8,0c-3.4,0-6.6,1.3-9,3.7l-8.9,8.8l18.3,0.1
					c6.7,0,12.6,5.6,12.5,12.3c0,3.4-1.4,6.4-3.6,8.6c-2.2,2.2-5.3,3.6-8.7,3.5l-25,0c-6.4,0-12.3,2.2-17,6
					c-1.4,1.1-2.6,2.4-3.7,3.7c-2.7,3.3-4.7,7.2-5.6,11.6h13.1c2.1-5.2,7.2-8.7,13.1-8.7l25,0c13.7,0.1,24.9-11,24.9-24.7
					C-3863,509.9-3865.8,503.7-3870.2,499.2z"/>
			</g>
		</g>
		<g>
			<g>
				<path class="st1" d="M-3765.3,463.4c-4.5,0-8.1,3.6-8.1,8.1c0,4.5,3.6,8.1,8.1,8.1c4.5,0,8.1-3.6,8.1-8.1
					C-3757.2,467.1-3760.8,463.4-3765.3,463.4z"/>
			</g>
		</g>
		<g>
			<g>
				<rect x="-3771.5" y="487" class="st1" width="12.2" height="54.4"/>
			</g>
		</g>
		<g>
			<g>
				<path class="st1" d="M-3811.3,501.5v39.9h12.5v-41.9h17.6V487h-15.6C-3804.8,487-3811.3,493.5-3811.3,501.5z"/>
			</g>
		</g>
		<g>
			<g>
				<path class="st1" d="M-3838.7,487l0-13.4l-12.2,0l0,13.4l0,32l0,7.9c0,8,6.5,14.5,14.5,14.5l13.2,0l0-12.5l-15.5,0l0.1-29.5
					l15.4,0l0-12.4L-3838.7,487L-3838.7,487z"/>
			</g>
		</g>
		<g>
			<g>
				<path class="st1" d="M-3721,486.3c-14.1,0-26.2,11.1-26.2,25h0v0.1c0,5.4,0,30,0,30h12.2v-28.8c0-1.4,0.1-2.9,0.5-4.3
					c1.8-5.8,7.2-9.9,13.5-9.9c6.6,0,12.2,4.5,13.7,10.7c0.3,1.1,0.5,2.2,0.5,3.4v29h12.2v-30
					C-3694.5,497.5-3706.9,486.3-3721,486.3z"/>
			</g>
		</g>
		<g>
			<path class="st1" d="M-3630,487.1h-12.3l0,4.2l-0.6-0.4c-4.9-3.2-10.6-4.8-16.5-4.5c-14,0.6-25.3,11.6-26.2,25.6
				c-0.5,7.7,2.1,15.1,7.4,20.7c5.2,5.6,12.6,8.8,20.2,8.8c5.3,0,10.5-1.5,15-4.5l0.6-0.4l0,0.7l0,16.6h-31.1v12.5h29.4
				c7.8,0,14.1-6.3,14.1-14.1V487.1z M-3658.1,529.4c-8.5,0-15.5-6.9-15.5-15.5s6.9-15.5,15.5-15.5c8.5,0,15.5,6.9,15.5,15.5
				S-3649.5,529.4-3658.1,529.4z"/>
		</g>
	</g>
	<g>
		<g>
			<g>
				<path class="st1" d="M-3747-816c-4.3,12.6-16.2,21.5-30.1,21.4l-54.6,0c-30.8-0.2-55.9,24.7-56.1,55.5
					c-0.1,15.4,6.1,29.4,16.1,39.5c10.1,10.2,24,16.5,39.4,16.6l1.9,0c7.6,0,14.9-2.9,20.3-8.3l20-19.8l0,0l-41.3-0.2
					c-15.1-0.1-28.2-12.5-28.2-27.6c0-7.6,3.2-14.5,8.1-19.4c5-5,11.9-8,19.5-8l54.6,0c14.4,0.1,27.7-4.9,38.1-13.4
					c3.1-2.5,5.9-5.3,8.4-8.3c6.5-7.9,11-17.4,12.9-28H-3747z"/>
			</g>
		</g>
		<g>
			<g>
				<path class="st1" d="M-3708.4-722.6c-10-10.1-24-16.5-39.4-16.5l-1.9,0c-7.6,0-14.9,2.9-20.3,8.3l-20,19.8l41.2,0.2
					c15.1,0.1,28.3,12.5,28.2,27.7c0,7.6-3.2,14.4-8.1,19.4c-5,4.9-11.9,8-19.5,8l-56.2,0c-14.4-0.1-27.7,5-38.1,13.5
					c-3.1,2.5-5.9,5.3-8.4,8.3c-6.1,7.4-10.5,16.3-12.5,26.1h29.5c4.8-11.6,16.2-19.7,29.4-19.6l56.2,0
					c30.8,0.2,55.9-24.7,56.1-55.5C-3692.2-698.5-3698.4-712.5-3708.4-722.6z"/>
			</g>
		</g>
	</g>
	<g>
		<g>
			<g>
				<path class="st0" d="M-5356.4,457.7c-1.9,5.6-7.2,9.5-13.4,9.5l-24.3,0c-13.7-0.1-24.9,11-24.9,24.7c0,6.9,2.7,13.1,7.2,17.6
					c4.5,4.5,10.7,7.3,17.5,7.4l0.8,0c3.4,0,6.6-1.3,9-3.7l8.9-8.8v0l-18.4-0.1c-6.7,0-12.6-5.6-12.5-12.3c0-3.4,1.4-6.4,3.6-8.6
					c2.2-2.2,5.3-3.6,8.7-3.5l24.3,0c6.4,0,12.3-2.2,16.9-6c1.4-1.1,2.6-2.3,3.7-3.7c2.9-3.5,4.9-7.8,5.7-12.4H-5356.4z"/>
			</g>
		</g>
		<g>
			<g>
				<path class="st0" d="M-5339.2,499.2c-4.5-4.5-10.7-7.3-17.5-7.4l-0.8,0c-3.4,0-6.6,1.3-9,3.7l-8.9,8.8l18.3,0.1
					c6.7,0,12.6,5.6,12.5,12.3c0,3.4-1.4,6.4-3.6,8.6c-2.2,2.2-5.3,3.6-8.7,3.5l-25,0c-6.4,0-12.3,2.2-17,6
					c-1.4,1.1-2.6,2.4-3.7,3.7c-2.7,3.3-4.7,7.2-5.6,11.6h13.1c2.1-5.2,7.2-8.7,13.1-8.7l25,0c13.7,0.1,24.9-11,24.9-24.7
					C-5332,509.9-5334.8,503.7-5339.2,499.2z"/>
			</g>
		</g>
		<g>
			<g>
				<path class="st0" d="M-5234.3,463.4c-4.5,0-8.1,3.6-8.1,8.1c0,4.5,3.6,8.1,8.1,8.1s8.1-3.6,8.1-8.1
					C-5226.2,467.1-5229.8,463.4-5234.3,463.4z"/>
			</g>
		</g>
		<g>
			<g>
				<rect x="-5240.5" y="487" class="st0" width="12.2" height="54.4"/>
			</g>
		</g>
		<g>
			<g>
				<path class="st0" d="M-5280.3,501.5v39.9h12.5v-41.9h17.6V487h-15.6C-5273.8,487-5280.3,493.5-5280.3,501.5z"/>
			</g>
		</g>
		<g>
			<g>
				<path class="st0" d="M-5307.7,487l0-13.4l-12.2,0l0,13.4l0,32l0,7.9c0,8,6.5,14.5,14.5,14.5l13.2,0l0-12.5l-15.5,0l0.1-29.5
					l15.4,0l0-12.4L-5307.7,487L-5307.7,487z"/>
			</g>
		</g>
		<g>
			<g>
				<path class="st0" d="M-5190,486.3c-14.1,0-26.2,11.1-26.2,25h0v0.1c0,5.4,0,30,0,30h12.2v-28.8c0-1.4,0.1-2.9,0.5-4.3
					c1.8-5.8,7.2-9.9,13.5-9.9c6.6,0,12.2,4.5,13.7,10.7c0.3,1.1,0.5,2.2,0.5,3.4v29h12.2v-30
					C-5163.5,497.5-5175.9,486.3-5190,486.3z"/>
			</g>
		</g>
		<g>
			<path class="st0" d="M-5099,487.1h-12.3l0,4.2l-0.6-0.4c-4.9-3.2-10.6-4.8-16.5-4.5c-14,0.6-25.3,11.6-26.2,25.6
				c-0.5,7.7,2.1,15.1,7.4,20.7c5.2,5.6,12.6,8.8,20.2,8.8c5.3,0,10.5-1.5,15-4.5l0.6-0.4l0,0.7l0,16.6h-31.1v12.5h29.4
				c7.8,0,14.1-6.3,14.1-14.1V487.1z M-5127.1,529.4c-8.5,0-15.5-6.9-15.5-15.5s6.9-15.5,15.5-15.5c8.5,0,15.5,6.9,15.5,15.5
				S-5118.5,529.4-5127.1,529.4z"/>
		</g>
	</g>
	<g>
		<g>
			<g>
				<path class="st0" d="M-5216-816c-4.3,12.6-16.2,21.5-30.1,21.4l-54.6,0c-30.8-0.2-55.9,24.7-56.1,55.5
					c-0.1,15.4,6.1,29.4,16.1,39.5c10.1,10.2,24,16.5,39.4,16.6l1.9,0c7.6,0,14.9-2.9,20.3-8.3l20-19.8l0,0l-41.3-0.2
					c-15.1-0.1-28.2-12.5-28.2-27.6c0-7.6,3.2-14.5,8.1-19.4c5-5,11.9-8,19.5-8l54.6,0c14.4,0.1,27.7-4.9,38.1-13.4
					c3.1-2.5,5.9-5.3,8.4-8.3c6.5-7.9,11-17.4,12.9-28H-5216z"/>
			</g>
		</g>
		<g>
			<g>
				<path class="st0" d="M-5177.4-722.6c-10-10.1-24-16.5-39.4-16.5l-1.9,0c-7.6,0-14.9,2.9-20.3,8.3l-20,19.8l41.2,0.2
					c15.1,0.1,28.3,12.5,28.2,27.7c0,7.6-3.2,14.4-8.1,19.4c-5,4.9-11.9,8-19.5,8l-56.2,0c-14.4-0.1-27.7,5-38.1,13.5
					c-3.1,2.5-5.9,5.3-8.4,8.3c-6.1,7.4-10.5,16.3-12.5,26.1h29.5c4.8-11.6,16.2-19.7,29.4-19.6l56.2,0
					c30.8,0.2,55.9-24.7,56.1-55.5C-5161.2-698.5-5167.4-712.5-5177.4-722.6z"/>
			</g>
		</g>
	</g>
	<g>
		<g>
			<g>
				<path class="st0" d="M-6842.4,457.7c-1.9,5.6-7.2,9.5-13.4,9.5l-24.3,0c-13.7-0.1-24.9,11-24.9,24.7c0,6.9,2.7,13.1,7.2,17.6
					c4.5,4.5,10.7,7.3,17.5,7.4l0.8,0c3.4,0,6.6-1.3,9-3.7l8.9-8.8v0l-18.4-0.1c-6.7,0-12.6-5.6-12.5-12.3c0-3.4,1.4-6.4,3.6-8.6
					c2.2-2.2,5.3-3.6,8.7-3.5l24.3,0c6.4,0,12.3-2.2,16.9-6c1.4-1.1,2.6-2.3,3.7-3.7c2.9-3.5,4.9-7.8,5.7-12.4H-6842.4z"/>
			</g>
		</g>
		<g>
			<g>
				<path class="st0" d="M-6825.2,499.2c-4.5-4.5-10.7-7.3-17.5-7.4l-0.8,0c-3.4,0-6.6,1.3-9,3.7l-8.9,8.8l18.3,0.1
					c6.7,0,12.6,5.6,12.5,12.3c0,3.4-1.4,6.4-3.6,8.6c-2.2,2.2-5.3,3.6-8.7,3.5l-25,0c-6.4,0-12.3,2.2-17,6
					c-1.4,1.1-2.6,2.4-3.7,3.7c-2.7,3.3-4.7,7.2-5.6,11.6h13.1c2.1-5.2,7.2-8.7,13.1-8.7l25,0c13.7,0.1,24.9-11,24.9-24.7
					C-6818,509.9-6820.8,503.7-6825.2,499.2z"/>
			</g>
		</g>
		<g>
			<g>
				<path class="st0" d="M-6720.3,463.4c-4.5,0-8.1,3.6-8.1,8.1c0,4.5,3.6,8.1,8.1,8.1s8.1-3.6,8.1-8.1
					C-6712.2,467.1-6715.8,463.4-6720.3,463.4z"/>
			</g>
		</g>
		<g>
			<g>
				<rect x="-6726.5" y="487" class="st0" width="12.2" height="54.4"/>
			</g>
		</g>
		<g>
			<g>
				<path class="st0" d="M-6766.3,501.5v39.9h12.5v-41.9h17.6V487h-15.6C-6759.8,487-6766.3,493.5-6766.3,501.5z"/>
			</g>
		</g>
		<g>
			<g>
				<path class="st0" d="M-6793.7,487l0-13.4l-12.2,0l0,13.4l0,32l0,7.9c0,8,6.5,14.5,14.5,14.5l13.2,0l0-12.5l-15.5,0l0.1-29.5
					l15.4,0l0-12.4L-6793.7,487L-6793.7,487z"/>
			</g>
		</g>
		<g>
			<g>
				<path class="st0" d="M-6676,486.3c-14.1,0-26.2,11.1-26.2,25h0v0.1c0,5.4,0,30,0,30h12.2v-28.8c0-1.4,0.1-2.9,0.5-4.3
					c1.8-5.8,7.2-9.9,13.5-9.9c6.6,0,12.2,4.5,13.7,10.7c0.3,1.1,0.5,2.2,0.5,3.4v29h12.2v-30
					C-6649.5,497.5-6661.9,486.3-6676,486.3z"/>
			</g>
		</g>
		<g>
			<path class="st0" d="M-6585,487.1h-12.3l0,4.2l-0.6-0.4c-4.9-3.2-10.6-4.8-16.5-4.5c-14,0.6-25.3,11.6-26.2,25.6
				c-0.5,7.7,2.1,15.1,7.4,20.7c5.2,5.6,12.6,8.8,20.2,8.8c5.3,0,10.5-1.5,15-4.5l0.6-0.4l0,0.7l0,16.6h-31.1v12.5h29.4
				c7.8,0,14.1-6.3,14.1-14.1V487.1z M-6613.1,529.4c-8.5,0-15.5-6.9-15.5-15.5s6.9-15.5,15.5-15.5c8.5,0,15.5,6.9,15.5,15.5
				S-6604.5,529.4-6613.1,529.4z"/>
		</g>
	</g>
	<g>
		<g>
			<g>
				<path class="st0" d="M-6702-816c-4.3,12.6-16.2,21.5-30.1,21.4l-54.6,0c-30.8-0.2-55.9,24.7-56.1,55.5
					c-0.1,15.4,6.1,29.4,16.1,39.5c10.1,10.2,24,16.5,39.4,16.6l1.9,0c7.6,0,14.9-2.9,20.3-8.3l20-19.8l0,0l-41.3-0.2
					c-15.1-0.1-28.2-12.5-28.2-27.6c0-7.6,3.2-14.5,8.1-19.4c5-5,11.9-8,19.5-8l54.6,0c14.4,0.1,27.7-4.9,38.1-13.4
					c3.1-2.5,5.9-5.3,8.4-8.3c6.5-7.9,11-17.4,12.9-28H-6702z"/>
			</g>
		</g>
		<g>
			<g>
				<path class="st0" d="M-6663.4-722.6c-10-10.1-24-16.5-39.4-16.5l-1.9,0c-7.6,0-14.9,2.9-20.3,8.3l-20,19.8l41.2,0.2
					c15.1,0.1,28.3,12.5,28.2,27.7c0,7.6-3.2,14.4-8.1,19.4c-5,4.9-11.9,8-19.5,8l-56.2,0c-14.4-0.1-27.7,5-38.1,13.5
					c-3.1,2.5-5.9,5.3-8.4,8.3c-6.1,7.4-10.5,16.3-12.5,26.1h29.5c4.8-11.6,16.2-19.7,29.4-19.6l56.2,0
					c30.8,0.2,55.9-24.7,56.1-55.5C-6647.2-698.5-6653.4-712.5-6663.4-722.6z"/>
			</g>
		</g>
	</g>
</g>
</svg>
